<?xml version="1.0" encoding="UTF-8"?>
<svg width="399px" height="405px" viewBox="0 0 399 405" version="1.1" xmlns="http://www.w3.org/2000/svg" xmlns:xlink="http://www.w3.org/1999/xlink">
    <!-- Generator: Sketch 52.6 (67491) - http://www.bohemiancoding.com/sketch -->
    <title>Artboard Copy</title>
    <desc>Created with Sketch.</desc>
    <g id="Artboard-Copy" stroke="none" stroke-width="1" fill="none" fill-rule="evenodd">
        <path d="M270.21854,112.859518 C267.491463,105.591928 266,97.7201388 266,89.5 C266,52.7730641 295.773064,23 332.5,23 C369.226936,23 399,52.7730641 399,89.5 C399,124.611942 371.787788,153.368132 337.302701,155.82923 C330.306921,167.315646 317.562208,175 303,175 C280.90861,175 263,157.315248 263,135.5 C263,127.077455 265.66949,119.27061 270.21854,112.859518 Z M270.21854,112.859518 C279.675828,138.062951 303.993203,156 332.5,156 C334.114993,156 335.716541,155.94243 337.302701,155.82923 C340.91977,149.890344 343,142.935067 343,135.5 C343,113.684752 325.09139,96 303,96 C289.437769,96 277.451992,102.66523 270.21854,112.859518 Z" id="Combined-Shape" fill="#EEA231" fill-rule="nonzero"></path>
        <path d="M59.8918919,0 L168,0 C136.713438,66.8264949 111.145012,116.826495 91.2947233,150 C71.4444343,183.173505 39.2694021,229.673505 -5.23037323,289.5 C-12.2787835,296.5 -17.5554888,300 -21.0604891,300 C-24.5654894,300 -28.211993,296.5 -32,289.5 C-28.2938477,279.655164 -25.5053449,272.488497 -23.6344916,268 C-1.17334952,214.111879 14.9862646,173.50405 24.1132561,144.75 C34.3805678,112.403439 46.3067797,64.1534385 59.8918919,0 Z" id="Path-38" fill="#EEA231" fill-rule="nonzero"></path>
    </g>
</svg>