<?xml version="1.0" encoding="UTF-8"?>
<svg width="1200px" height="405px" viewBox="0 0 1200 405" version="1.1" xmlns="http://www.w3.org/2000/svg" xmlns:xlink="http://www.w3.org/1999/xlink">
    <!-- Generator: Sketch 52.6 (67491) - http://www.bohemiancoding.com/sketch -->
    <title>Artboard</title>
    <desc>Created with Sketch.</desc>
    <g id="Artboard" stroke="none" stroke-width="1" fill="none" fill-rule="evenodd">
        <path d="M941.852784,230.481624 C936.358721,215.870101 933.353488,200.040546 933.353488,183.509242 C933.353488,109.774124 993.14129,50 1066.89328,50 C1140.64527,50 1200.43307,109.774124 1200.43307,183.509242 C1200.43307,254.228633 1145.43584,312.105671 1075.86932,316.721654 C1061.88838,339.718252 1036.5922,355.079025 1007.70749,355.079025 C963.68626,355.079025 928,319.400929 928,275.389767 C928,258.732546 933.111878,243.268995 941.852784,230.481624 Z M941.852784,230.481624 C960.864071,281.042355 1009.67638,317.018484 1066.89328,317.018484 C1069.9097,317.018484 1072.90276,316.918496 1075.86932,316.721654 C1083.19579,304.670682 1087.41499,290.522835 1087.41499,275.389767 C1087.41499,231.378605 1051.72873,195.700509 1007.70749,195.700509 C980.347293,195.700509 956.206814,209.482622 941.852784,230.481624 Z" id="Combined-Shape" fill="#EEA231" fill-rule="nonzero"></path>
        <path d="M197.108108,-0.5 L429,-0.5 C361.890324,66.3264949 307.046051,116.326495 264.467181,149.5 C221.888312,182.673505 152.872868,229.173505 57.4208494,289 C42.3020094,296 30.9834766,299.5 23.465251,299.5 C15.9470253,299.5 8.12527501,296 0,289 C7.94969663,279.155164 13.9310351,271.988497 17.9440154,267.5 C66.1231653,213.611879 100.785538,173.00405 120.362934,144.25 C142.386318,111.903439 167.968042,63.6534385 197.108108,-0.5 Z" id="Path-38" fill="#EEA231" fill-rule="nonzero"></path>
    </g>
</svg>