<?xml version="1.0" encoding="UTF-8"?>
<svg width="399px" height="405px" viewBox="0 0 399 405" version="1.1" xmlns="http://www.w3.org/2000/svg" xmlns:xlink="http://www.w3.org/1999/xlink">
    <!-- Generator: Sketch 52.6 (67491) - http://www.bohemiancoding.com/sketch -->
    <title>Artboard Copy</title>
    <desc>Created with Sketch.</desc>
    <g id="Artboard-Copy" stroke="none" stroke-width="1" fill="none" fill-rule="evenodd">
        <path d="M291.381755,97.6210354 C289.19413,91.6600177 288,85.2194608 288,78.5 C288,47.8481964 312.848196,23 343.5,23 C374.151804,23 399,47.8481964 399,78.5 C399,107.875815 376.177529,131.921157 347.296419,133.872193 C341.45226,143.5303 330.743117,150 318.5,150 C299.998461,150 285,135.225397 285,117 C285,109.758892 287.36757,103.062506 291.381755,97.6210354 Z M291.381755,97.6210354 C299.173303,118.852072 319.567657,134 343.5,134 C344.775988,134 346.041919,133.95694 347.296419,133.872193 C350.283829,128.935174 352,123.165012 352,117 C352,98.7746033 337.001539,84 318.5,84 C307.349283,84 297.471013,89.3666801 291.381755,97.6210354 Z" id="Combined-Shape" fill="#EEA231" fill-rule="nonzero"></path>
        <path d="M59.8918919,0 L168,0 C136.713438,66.8264949 111.145012,116.826495 91.2947233,150 C71.4444343,183.173505 39.2694021,229.673505 -5.23037323,289.5 C-12.2787835,296.5 -17.5554888,300 -21.0604891,300 C-24.5654894,300 -28.211993,296.5 -32,289.5 C-28.2938477,279.655164 -25.5053449,272.488497 -23.6344916,268 C-1.17334952,214.111879 14.9862646,173.50405 24.1132561,144.75 C34.3805678,112.403439 46.3067797,64.1534385 59.8918919,0 Z" id="Path-38" fill="#EEA231" fill-rule="nonzero"></path>
    </g>
</svg>